<?xml version="1.0" encoding="utf-8"?>
<!-- Generator: Adobe Illustrator 17.0.0, SVG Export Plug-In . SVG Version: 6.00 Build 0)  -->
<!DOCTYPE svg PUBLIC "-//W3C//DTD SVG 1.1//EN" "http://www.w3.org/Graphics/SVG/1.1/DTD/svg11.dtd">
<svg version="1.1" xmlns="http://www.w3.org/2000/svg" xmlns:xlink="http://www.w3.org/1999/xlink" x="0px" y="0px" width="800px"
	 height="615px" viewBox="0 0 800 615" enable-background="new 0 0 800 615" xml:space="preserve">
<g id="Layer_1">
	<g>
		<path fill="#0B0C0C" d="M522.626,600.37c0,0-13.853-11.716-21.473-19.322c-7.622-7.613-9.687-16.949-9.687-16.949l-6.03-64.556
			H317.451l-6.055,64.582c0,0-2.081,9.871-9.704,17.479c-7.622,7.616-21.482,19.124-21.482,19.124s-12.467,8.782,6.242,11.548
			c10.716,1.586,58.501,2.724,96.897,2.724h36.25c39.181,0,86.143-1.27,96.857-2.856C535.164,609.38,522.626,600.37,522.626,600.37z
			"/>
		<path fill="#FFFFFF" d="M781.267,0H21.012C10.119,0,0.5,10.038,0.5,21.021v445.808c0,10.983,9.619,20.931,20.512,20.931H302.27
			h16.168H484.46h16.923h279.884c10.896,0,19.233-9.948,19.233-20.931V21.021C800.5,10.038,792.163,0,781.267,0z"/>
		<path fill="#0B0C0C" d="M781.267,0H21.012C10.119,0,0.5,10.038,0.5,21.021v445.808c0,10.983,9.619,20.931,20.512,20.931H302.27
			h16.168H484.46h16.923h279.884c10.896,0,19.233-9.948,19.233-20.931V21.021C800.5,10.038,792.163,0,781.267,0z M767.462,452.416
			H31.178V35.345h736.283V452.416z"/>
	</g>
</g>
<g id="Layer_3" display="none">
	<g display="inline">
		<path fill="#FFFFFF" d="M565.721,202.221c0-9.59-7.774-17.364-17.364-17.364H251.643c-9.59,0-17.364,7.774-17.364,17.364v395.415
			c0,9.59,7.774,17.364,17.364,17.364h296.713c9.59,0,17.364-7.774,17.364-17.364V202.221z"/>
		<path fill="#0B0C0C" d="M565.721,202.221c0-9.59-7.774-17.364-17.364-17.364H251.643c-9.59,0-17.364,7.774-17.364,17.364v395.415
			c0,9.59,7.774,17.364,17.364,17.364h296.713c9.59,0,17.364-7.774,17.364-17.364V202.221z M400.707,606.099
			c-5.385,0-9.748-4.364-9.748-9.748c0-5.383,4.364-9.748,9.748-9.748c5.383,0,9.748,4.365,9.748,9.748
			C410.455,601.735,406.09,606.099,400.707,606.099z M531.602,578.444H267.18V222.632h264.422V578.444z"/>
	</g>
</g>
<g id="Layer_2" display="none">
	<g display="inline">
		<path fill="#FFFFFF" d="M446.126,371.874c-1.028-0.072-2.147-0.141-3.404-0.21v-0.015c-13.821-1.289-28.517-1.726-43.026-1.636
			c-10.403-0.07-21.051,0.124-31.102,0.712v0.215c-5.026,0.273-10.134,0.589-15.071,0.935c-16.317,1.142-17.746,13.116-17.591,26.88
			l0.172,184.41c-0.417,13.76,0.172,28.142,17.59,29.615c4.933,0.417,9.874,0.792,14.9,1.111v0.28
			c10.051,0.653,20.572,0.886,30.777,0.815c14.376,0.108,29.531-0.394,43.351-1.817v-0.156c1.256-0.079,2.317-0.152,3.311-0.235
			c17.418-1.473,18.394-15.855,17.977-29.615l0.029-184.41C464.193,384.991,462.444,373.018,446.126,371.874z"/>
		<path fill="#0B0C0C" d="M446.126,371.874c-1.028-0.072-2.147-0.141-3.404-0.21v-0.015c-13.821-1.289-28.517-1.726-43.026-1.636
			c-10.403-0.07-21.051,0.124-31.102,0.712v0.215c-5.026,0.273-10.134,0.589-15.071,0.935c-16.317,1.142-17.746,13.116-17.591,26.88
			l0.172,184.41c-0.417,13.76,0.172,28.142,17.59,29.615c4.933,0.417,9.874,0.792,14.9,1.111v0.28
			c10.051,0.653,20.572,0.886,30.777,0.815c14.376,0.108,29.531-0.394,43.351-1.817v-0.156c1.256-0.079,2.317-0.152,3.311-0.235
			c17.418-1.473,18.394-15.855,17.977-29.615l0.029-184.41C464.193,384.991,462.444,373.018,446.126,371.874z M387.515,380.051
			c0-0.891,0.724-1.256,1.62-1.256h22.059c0.896,0,1.62,0.366,1.62,1.256c0,0.892-0.724,1.256-1.62,1.256h-22.059
			C388.239,381.307,387.515,380.943,387.515,380.051z M388.249,601.179h0.44h0.1h1.519h19.712h1.519h0.101h0.44
			c0,0-0.249,0.235-0.231,0.232c0.437,0.059,0.72,0.564,0.72,1.559c0,1.616,0,3.233,0,3.233s-0.178,3.318-3.84,3.728
			c-0.028,0.024,0.573,0.043,0.573,0.043c-0.083,0-0.177,0-0.28,0c-0.133,0-0.292,0-0.442,0c-4.052,0-14.071,0-16.831,0
			c-0.185,0-0.324,0-0.442,0c-0.175,0-0.28,0-0.28,0s-0.191-0.019-0.216-0.043c-3.662-0.41-4.626-3.728-4.626-3.728s0-1.616,0-3.233
			c0-1.028,1.064-1.518,1.637-1.564C387.909,601.412,388.249,601.179,388.249,601.179z M455.619,587.359h-12.325h-74.136H344.71
			l-0.229-193.487h24.677h74.136h12.553L455.619,587.359z"/>
	</g>
</g>
</svg>
