<?xml version="1.0" encoding="utf-8"?>
<!-- Generator: Adobe Illustrator 17.0.0, SVG Export Plug-In . SVG Version: 6.00 Build 0)  -->
<!DOCTYPE svg PUBLIC "-//W3C//DTD SVG 1.1//EN" "http://www.w3.org/Graphics/SVG/1.1/DTD/svg11.dtd">
<svg version="1.1" id="Layer_1" xmlns="http://www.w3.org/2000/svg" xmlns:xlink="http://www.w3.org/1999/xlink" x="0px" y="0px"
	 width="101.997px" height="195px" viewBox="0 0 101.997 195" enable-background="new 0 0 101.997 195" xml:space="preserve">
<path fill="#FFFFFF" d="M87.709,1.492C86.891,1.435,86,1.38,85,1.325V1.313C74,0.287,62.303-0.061,50.755,0.011
	C42.475-0.045,34,0.11,26,0.578v0.171c-4,0.217-8.066,0.469-11.995,0.744C1.018,2.402-0.119,11.932,0.004,22.887l0.137,146.775
	c-0.332,10.952,0.137,22.399,14,23.571c3.926,0.332,7.859,0.63,11.859,0.884v0.223c8,0.52,16.374,0.705,24.496,0.649
	C61.938,195.075,74,194.675,85,193.543v-0.124c1-0.063,1.844-0.121,2.635-0.187c13.863-1.172,14.64-12.619,14.308-23.571
	l0.023-146.775C102.089,11.932,100.697,2.402,87.709,1.492z"/>
<path fill="#0B0C0C" d="M87.709,1.492C86.891,1.435,86,1.38,85,1.325V1.313C74,0.287,62.303-0.061,50.755,0.011
	C42.475-0.045,34,0.11,26,0.578v0.171c-4,0.217-8.066,0.469-11.995,0.744C1.018,2.402-0.119,11.932,0.004,22.887l0.137,146.775
	c-0.332,10.952,0.137,22.399,14,23.571c3.926,0.332,7.859,0.63,11.859,0.884v0.223c8,0.52,16.374,0.705,24.496,0.649
	C61.938,195.075,74,194.675,85,193.543v-0.124c1-0.063,1.844-0.121,2.635-0.187c13.863-1.172,14.64-12.619,14.308-23.571
	l0.023-146.775C102.089,11.932,100.697,2.402,87.709,1.492z M41.06,8c0-0.709,0.576-1,1.289-1h17.557c0.713,0,1.289,0.291,1.289,1
	c0,0.71-0.576,1-1.289,1H42.349C41.636,9,41.06,8.71,41.06,8z M41.644,184h0.35h0.08h1.209h15.689h1.209h0.08h0.35
	c0,0-0.198,0.187-0.184,0.185c0.348,0.047,0.573,0.449,0.573,1.241c0,1.286,0,2.573,0,2.573s-0.142,2.641-3.056,2.967
	C57.922,190.985,58.4,191,58.4,191c-0.066,0-0.141,0-0.223,0c-0.106,0-0.232,0-0.352,0c-3.225,0-11.199,0-13.396,0
	c-0.147,0-0.258,0-0.352,0c-0.139,0-0.223,0-0.223,0s-0.152-0.015-0.172-0.034C40.767,190.64,40,187.999,40,187.999s0-1.286,0-2.573
	c0-0.818,0.847-1.208,1.303-1.245C41.373,184.185,41.644,184,41.644,184z M95.265,173h-9.81H26.449H6.99L6.808,19h19.641h59.006
	h9.991L95.265,173z"/>
</svg>
