<?xml version="1.0" encoding="utf-8"?>
<!-- Generator: Adobe Illustrator 17.0.0, SVG Export Plug-In . SVG Version: 6.00 Build 0)  -->
<!DOCTYPE svg PUBLIC "-//W3C//DTD SVG 1.1//EN" "http://www.w3.org/Graphics/SVG/1.1/DTD/svg11.dtd">
<svg version="1.1" id="Layer_1" xmlns="http://www.w3.org/2000/svg" xmlns:xlink="http://www.w3.org/1999/xlink" x="0px" y="0px"
	 width="272px" height="353px" viewBox="0 0 272 353" enable-background="new 0 0 272 353" xml:space="preserve">
<path fill="#FFFFFF" d="M272,14.25C272,6.38,265.62,0,257.75,0H14.25C6.38,0,0,6.38,0,14.25v324.5C0,346.62,6.38,353,14.25,353
	h243.5c7.87,0,14.25-6.38,14.25-14.25V14.25z"/>
<path fill="#0B0C0C" d="M272,14.25C272,6.38,265.62,0,257.75,0H14.25C6.38,0,0,6.38,0,14.25v324.5C0,346.62,6.38,353,14.25,353
	h243.5c7.87,0,14.25-6.38,14.25-14.25V14.25z M136.58,345.695c-4.419,0-8-3.581-8-8c0-4.418,3.581-8,8-8c4.418,0,8,3.582,8,8
	C144.58,342.114,140.998,345.695,136.58,345.695z M244,323H27V31h217V323z"/>
</svg>
