<?xml version="1.0" encoding="utf-8"?>
<!-- Generator: Adobe Illustrator 17.0.0, SVG Export Plug-In . SVG Version: 6.00 Build 0)  -->
<!DOCTYPE svg PUBLIC "-//W3C//DTD SVG 1.1//EN" "http://www.w3.org/Graphics/SVG/1.1/DTD/svg11.dtd">
<svg version="1.1" id="Layer_1" xmlns="http://www.w3.org/2000/svg" xmlns:xlink="http://www.w3.org/1999/xlink" x="0px" y="0px"
	 width="800px" height="466px" viewBox="0 0 800 466" enable-background="new 0 0 800 466" xml:space="preserve">
<g id="Layer_1_1_" display="none">
	<g display="inline">
		<path fill="#0B0C0C" d="M492.095,455.027c0,0-10.389-8.787-16.104-14.491c-5.717-5.71-7.265-12.712-7.265-12.712l-4.522-48.417
			H338.213l-4.542,48.437c0,0-1.561,7.403-7.278,13.109c-5.717,5.712-16.111,14.343-16.111,14.343s-9.35,6.587,4.681,8.661
			C323,465.146,358.839,466,387.636,466h27.188c29.386,0,64.607-0.953,72.642-2.142
			C501.498,461.785,492.095,455.027,492.095,455.027z"/>
		<path fill="#FFFFFF" d="M686.075,4.75H115.884c-8.17,0-15.384,7.528-15.384,15.766v334.356c0,8.237,7.214,15.698,15.384,15.698
			h210.943h12.126H463.47h12.692h209.913c8.172,0,14.425-7.461,14.425-15.698V20.516C700.5,12.278,694.247,4.75,686.075,4.75z"/>
		<path fill="#0B0C0C" d="M686.075,4.75H115.884c-8.17,0-15.384,7.528-15.384,15.766v334.356c0,8.237,7.214,15.698,15.384,15.698
			h210.943h12.126H463.47h12.692h209.913c8.172,0,14.425-7.461,14.425-15.698V20.516C700.5,12.278,694.247,4.75,686.075,4.75z
			 M675.721,344.062H123.509V31.259h552.212L675.721,344.062L675.721,344.062z"/>
	</g>
</g>
<g id="Layer_3">
	<g>
		<path fill="#FFFFFF" d="M548.068,466c7.182,0,13.004-5.822,13.004-13.004l0-222.215c0-7.182-5.822-13.004-13.004-13.004H251.934
			c-7.182,0-13.004,5.822-13.004,13.004v222.215c0,7.182,5.822,13.004,13.004,13.004H548.068z"/>
		<path fill="#0B0C0C" d="M548.068,466c7.182,0,13.004-5.822,13.004-13.004l0-222.215c0-7.182-5.822-13.004-13.004-13.004H251.934
			c-7.182,0-13.004,5.822-13.004,13.004v222.215c0,7.182,5.822,13.004,13.004,13.004H548.068z M245.594,342.417
			c0-4.033,3.268-7.301,7.301-7.301c4.032,0,7.301,3.268,7.301,7.301c0,4.032-3.269,7.301-7.301,7.301
			C248.862,349.718,245.594,346.449,245.594,342.417z M266.306,440.447V242.416h266.475v198.031L266.306,440.447L266.306,440.447z"
			/>
	</g>
</g>
<g id="Layer_2" display="none">
	<g display="inline">
		<path fill="#FFFFFF" d="M446.126,222.874c-1.028-0.072-2.147-0.141-3.404-0.21v-0.015c-13.821-1.289-28.517-1.726-43.026-1.636
			c-10.403-0.07-21.051,0.124-31.102,0.712v0.215c-5.026,0.273-10.134,0.589-15.071,0.935c-16.317,1.142-17.746,13.116-17.591,26.88
			l0.172,184.41c-0.417,13.76,0.172,28.142,17.59,29.615c4.933,0.417,9.874,0.792,14.9,1.111v0.28
			c10.051,0.653,20.572,0.886,30.777,0.815c14.376,0.108,29.531-0.395,43.351-1.817v-0.156c1.256-0.079,2.317-0.152,3.311-0.235
			c17.418-1.473,18.394-15.855,17.977-29.615l0.029-184.41C464.193,235.991,462.444,224.018,446.126,222.874z"/>
		<path fill="#0B0C0C" d="M446.126,222.874c-1.028-0.072-2.147-0.141-3.404-0.21v-0.015c-13.821-1.289-28.517-1.726-43.026-1.636
			c-10.403-0.07-21.051,0.124-31.102,0.712v0.215c-5.026,0.273-10.134,0.589-15.071,0.935c-16.317,1.142-17.746,13.116-17.591,26.88
			l0.172,184.41c-0.417,13.76,0.172,28.142,17.59,29.615c4.933,0.417,9.874,0.792,14.9,1.111v0.28
			c10.051,0.653,20.572,0.886,30.777,0.815c14.376,0.108,29.531-0.395,43.351-1.817v-0.156c1.256-0.079,2.317-0.152,3.311-0.235
			c17.418-1.473,18.394-15.855,17.977-29.615l0.029-184.41C464.193,235.991,462.444,224.018,446.126,222.874z M387.515,231.051
			c0-0.891,0.724-1.256,1.62-1.256h22.059c0.896,0,1.62,0.366,1.62,1.256c0,0.892-0.724,1.256-1.62,1.256h-22.059
			C388.239,232.307,387.515,231.943,387.515,231.051z M388.249,452.179h0.44h0.1h1.519h19.712h1.519h0.101h0.44
			c0,0-0.249,0.235-0.231,0.232c0.437,0.059,0.72,0.564,0.72,1.559c0,1.616,0,3.233,0,3.233s-0.178,3.318-3.84,3.728
			c-0.028,0.024,0.573,0.043,0.573,0.043c-0.083,0-0.177,0-0.28,0c-0.133,0-0.292,0-0.442,0c-4.052,0-14.071,0-16.831,0
			c-0.185,0-0.324,0-0.442,0c-0.175,0-0.28,0-0.28,0s-0.191-0.019-0.216-0.043c-3.662-0.41-4.626-3.728-4.626-3.728s0-1.616,0-3.233
			c0-1.028,1.064-1.518,1.637-1.564C387.909,452.412,388.249,452.179,388.249,452.179z M455.619,438.359h-12.325h-74.136H344.71
			l-0.229-193.487h24.677h74.136h12.553L455.619,438.359z"/>
	</g>
</g>
</svg>
