<?xml version="1.0" encoding="utf-8"?>
<!-- Generator: Adobe Illustrator 17.0.0, SVG Export Plug-In . SVG Version: 6.00 Build 0)  -->
<!DOCTYPE svg PUBLIC "-//W3C//DTD SVG 1.1//EN" "http://www.w3.org/Graphics/SVG/1.1/DTD/svg11.dtd">
<svg version="1.1" id="Layer_1" xmlns="http://www.w3.org/2000/svg" xmlns:xlink="http://www.w3.org/1999/xlink" x="0px" y="0px"
	 width="692.376px" height="570px" viewBox="0 0 692.376 570" enable-background="new 0 0 692.376 570" xml:space="preserve">
<path fill="#231F20" d="M679.982,395.871c27.28-137.849-5.591-151.685-37.08-191.654h0.499c0,0-25.331-114.422-34.951-146.491
	C598.827,25.656,521.552,0,345.17,0C168.785,0,94.724,25.656,85.103,57.725c-9.621,32.07-34.951,146.491-34.951,146.491
	c-31.532,40.026-64.456,53.839-36.97,192.224h-0.004c-7.404-7.291-18.494,11.958-10.276,30.128
	c8.218,18.171-13.163,48.101,23.184,48.101c4.507,0,12.15,0.188,22.165,0.514v46.711c0,26.567,21.537,48.105,48.104,48.105h8.641
	c26.564,0,48.105-21.538,48.105-48.105v-42.628c71.913,2.894,155.053,6.087,199.027,6.092c38.11,0.007,120.675-3.31,192.239-6.251
	v42.787c0,26.567,21.533,48.105,48.102,48.105h8.64c26.565,0,48.104-21.538,48.104-48.105v-46.869
	c7.541-0.227,13.379-0.356,17.099-0.356c36.349,0,14.965-29.93,23.181-48.101C697.436,409.007,687.351,390.512,679.982,395.871z
	 M109.482,362.642c-19.612,0-35.515-15.904-35.515-35.518c0-19.615,15.903-35.515,35.515-35.515c19.617,0,35.518,15.9,35.518,35.515
	C144.999,346.738,129.099,362.642,109.482,362.642z M347.853,178.561c-119.736,0-254.419,6.414-254.419,6.414
	s17.103-102.623,26.051-120.798c14.096-28.634,166.643-41.534,228.634-41.534c61.996,0,214.007,12.9,228.104,41.534
	c8.948,18.174,26.049,120.798,26.049,120.798S467.588,178.561,347.853,178.561z M586.221,362.642
	c-19.613,0-35.514-15.904-35.514-35.518c0-19.615,15.901-35.515,35.514-35.515c19.615,0,35.52,15.9,35.52,35.515
	C621.741,346.738,605.836,362.642,586.221,362.642z"/>
</svg>
